<svg width="101" height="130" viewBox="0 0 101 130" fill="none" xmlns="http://www.w3.org/2000/svg">
<path d="M74.3573 70.8245C63.1273 62.5816 51.1346 49.3938 48.1015 34.862C47.8727 38.0856 47.8738 41.3164 48.4509 44.6729C49.4832 50.6915 51.7886 56.4 55.0206 61.5494C58.3295 66.8206 62.5743 71.2434 67.183 75.3557C71.5157 79.2209 75.5946 83.1882 76.5196 89.2082C81.2715 90.3561 85.7032 92.5901 89.1289 96.3127C92.5692 100.05 94.3194 104.685 94.2845 109.387C95.9804 105.286 96.6911 100.863 95.4024 95.6518C92.5968 84.3083 83.2133 77.3242 74.3573 70.8245Z" fill="#1A2632"/>
<path d="M50.3507 58.4074C46.7395 51.1128 44.1955 41.2484 45.8144 32.6818C43.0175 40.6691 42.0501 49.2758 43.0547 57.756C44.375 68.8999 49.3932 83.4621 59.9692 88.8601C61.7797 88.6252 63.5732 88.4169 65.3318 88.3111C68.1072 88.1443 70.9477 88.2416 73.7266 88.6652C72.0751 81.6227 65.326 77.6273 60.5582 72.7055C56.4833 68.497 52.9612 63.6787 50.3507 58.4074Z" fill="#1A2632"/>
<path d="M36.3132 14.0558C34.6583 9.2716 31.948 4.93408 28.5632 1.19429C28.2115 0.805777 27.8499 0.406657 27.479 0C27.8572 0.583127 28.2234 1.16743 28.5751 1.7409C30.9506 5.60838 32.9331 9.75365 34.1933 14.1326C36.7251 22.9304 35.3208 31.67 33.5561 40.4608C31.53 50.5431 29.9881 60.6742 34.2836 70.4313C37.9045 78.6573 44.5886 84.5494 52.8783 87.264C45.4161 80.1874 41.6291 68.6212 40.3895 58.8857C39.7029 53.4903 39.7631 48.056 40.5292 42.7384C40.1847 33.0323 39.5536 23.4163 36.3132 14.0558Z" fill="#1A2632"/>
<path d="M23.7857 31.0127C20.796 38.8247 17.5099 46.7607 16.992 55.2189C16.7089 59.8597 17.2377 64.638 18.9747 68.9706C19.4541 70.1684 20.0383 71.2762 20.6864 72.3329C25.6492 77.1829 29.6711 83.0726 35.5098 86.8404C40.6436 90.1528 46.393 90.3611 52.2099 89.8192C36.6637 85.1141 27.6837 69.1909 28.963 52.9571C29.7182 43.3872 33.1788 34.1778 33.227 24.5302C33.2644 16.8973 30.6868 10.2819 27.0645 4.09888C27.5559 5.64752 27.9378 7.23362 28.1716 8.85766C29.2909 16.6291 26.5527 23.7836 23.8269 30.905L23.7857 31.0127Z" fill="#1A2632"/>
<path d="M56.0386 129.289C64.838 130.129 74.8034 129.37 82.4126 124.416C90.9468 118.861 94.6377 107.626 87.7657 99.164C74.5252 82.8596 53.3019 98.0744 37.1451 90.9988C29.2601 87.5453 24.8045 79.731 18.6201 74.1296C14.2584 70.1806 9.12216 67.3331 3.62573 65.5863C5.2531 66.4335 6.83709 67.3769 8.35846 68.4459C13.873 72.3159 17.7034 77.402 21.6472 82.7962C26.5991 89.5685 32.9556 94.0229 41.2743 95.3656C48.3499 96.5099 56.2832 95.351 62.9203 98.5076C67.5036 100.688 71.1547 105.933 69.3142 111.159C67.4484 116.454 61.1823 119.282 56.1266 120.248C42.7741 122.799 30.6321 114.671 22.8746 104.328C17.6697 97.3878 14.2548 89.4931 10.5062 81.7164C8.51866 77.5907 6.04931 74.0653 2.57536 71.0924C1.74541 70.3814 0.88174 69.7205 0 69.0848C7.42493 77.9267 10.7784 90.2246 15.5714 100.785C23.1553 117.496 37.9703 127.564 56.0386 129.289Z" fill="#1A2632"/>
<path d="M9.6559 72.3208C6.7276 69.8325 3.4801 67.8603 0.0266113 66.3411C2.15026 67.7276 4.14863 69.3128 5.94223 71.0134C10.728 75.5519 13.0696 81.4889 15.8955 87.336C21.6955 99.3295 29.5553 112.066 42.8102 116.48C49.1127 118.579 56.5447 118.409 62.3099 114.832C65.6981 112.728 68.188 109.062 66.0199 105.1C63.8986 101.223 59.3983 100.008 55.3644 99.494C48.9765 98.6818 42.4803 98.9962 36.2502 97.1019C31.1007 95.5351 26.4246 92.5292 22.823 88.4937C18.1469 83.2579 15.0752 76.9238 9.6559 72.3208Z" fill="#1A2632"/>
<path d="M86.0549 125.306C89.9288 128.57 96.2925 126.111 98.9713 122.226C101.82 118.098 100.822 112.597 97.2562 109.388C95.924 113.107 93.805 116.603 91.2021 119.598C89.7938 121.826 88.0424 123.716 86.0549 125.306Z" fill="#1A2632"/>
</svg>
