<svg width="401" height="130" viewBox="0 0 401 130" fill="none" xmlns="http://www.w3.org/2000/svg">
<path d="M210.466 81.1827C210.466 91.0815 208.551 99.6946 204.72 107.022C200.89 114.221 195.463 119.814 188.44 123.799C181.545 127.655 173.373 129.584 163.925 129.584C154.476 129.584 146.24 127.655 139.217 123.799C132.195 119.814 126.704 114.221 122.746 107.022C118.915 99.8231 117 91.21 117 81.1827C117 71.2838 118.979 62.7351 122.937 55.5359C126.896 48.3367 132.386 42.8089 139.409 38.9523C146.431 34.9671 154.604 32.9744 163.925 32.9744C173.246 32.9744 181.354 34.9671 188.249 38.9523C195.271 42.8089 200.698 48.4011 204.529 55.7287C208.487 62.9279 210.466 71.4125 210.466 81.1827ZM163.925 51.8721C156.902 51.8721 151.348 54.4433 147.262 59.5854C143.303 64.7275 141.324 71.9267 141.324 81.1827C141.324 90.6958 143.303 98.0235 147.262 103.166C151.22 108.179 156.774 110.686 163.925 110.686C170.947 110.686 176.438 108.115 180.396 102.973C184.354 97.8307 186.333 90.5671 186.333 81.1827C186.333 72.0552 184.354 64.9203 180.396 59.7782C176.438 54.5074 170.947 51.8721 163.925 51.8721ZM259.562 88.5103L243.09 77.5188L286.567 33.9386C291.291 34.0671 295.059 35.2241 297.868 37.4096C300.676 39.4664 302.081 42.1661 302.081 45.5086C302.081 48.2082 301.124 50.6507 299.208 52.8362C297.42 55.0217 294.676 57.7214 290.973 60.9352L259.562 88.5103ZM243.665 80.9898L261.86 72.3124L306.486 114.543C306.103 118.785 304.827 122.128 302.656 124.57C300.484 127.013 297.485 128.234 293.654 128.234C290.716 128.234 288.035 127.527 285.61 126.113C283.185 124.57 280.695 122.256 278.14 119.171L243.665 80.9898ZM225.278 75.5905L248.836 76.7475V126.498C247.814 126.884 246.346 127.205 244.431 127.463C242.516 127.848 240.409 128.041 238.111 128.041C233.769 128.041 230.513 127.27 228.343 125.727C226.299 124.056 225.278 121.163 225.278 117.05V75.5905ZM248.836 88.896L225.278 87.739V1.54266C226.299 1.28547 227.768 0.96416 229.683 0.578494C231.599 0.192828 233.705 0 236.004 0C240.474 0 243.73 0.835692 245.772 2.50683C247.814 4.04949 248.836 6.87762 248.836 10.9915V88.896ZM316.784 91.9813V76.7475H340.342V91.5956C340.342 98.4092 342.065 103.294 345.513 106.251C349.087 109.208 354.005 110.686 360.261 110.686C364.347 110.686 367.795 110.3 370.603 109.529C373.411 108.758 375.518 107.922 376.924 107.022V76.7475H400.482V108.951C400.482 111.907 399.972 114.414 398.949 116.471C398.056 118.399 396.268 120.199 393.587 121.87C389.883 124.056 385.159 125.856 379.413 127.27C373.794 128.812 367.347 129.584 360.069 129.584C351.259 129.584 343.598 128.298 337.086 125.727C330.574 123.156 325.529 119.106 321.955 113.579C318.507 107.922 316.784 100.723 316.784 91.9813ZM400.482 86.0035H376.924V35.8669C377.946 35.6097 379.413 35.3528 381.329 35.0956C383.371 34.7099 385.478 34.5171 387.649 34.5171C392.119 34.5171 395.375 35.2884 397.417 36.8311C399.459 38.3738 400.482 41.2663 400.482 45.5086V86.0035ZM340.342 86.0035H316.784V35.8669C317.806 35.6097 319.273 35.3528 321.189 35.0956C323.104 34.7099 325.211 34.5171 327.509 34.5171C331.979 34.5171 335.235 35.2884 337.277 36.8311C339.319 38.3738 340.342 41.2663 340.342 45.5086V86.0035Z" fill="#1A2632"/>
<path d="M74.3573 70.8245C63.1273 62.5816 51.1346 49.3938 48.1015 34.862C47.8727 38.0856 47.8738 41.3165 48.4509 44.6729C49.4832 50.6915 51.7886 56.4 55.0206 61.5494C58.3295 66.8206 62.5743 71.2435 67.183 75.3557C71.5157 79.2209 75.5946 83.1882 76.5196 89.2082C81.2715 90.3561 85.7032 92.5901 89.1289 96.3127C92.5692 100.05 94.3194 104.685 94.2845 109.387C95.9804 105.286 96.6911 100.863 95.4024 95.6518C92.5968 84.3083 83.2133 77.3242 74.3573 70.8245Z" fill="#1A2632"/>
<path d="M50.3507 58.4074C46.7395 51.1128 44.1955 41.2484 45.8144 32.6818C43.0175 40.6691 42.0501 49.2758 43.0547 57.756C44.375 68.8999 49.3932 83.4621 59.9692 88.8601C61.7797 88.6252 63.5732 88.4169 65.3318 88.3111C68.1072 88.1443 70.9477 88.2416 73.7266 88.6652C72.0751 81.6227 65.326 77.6273 60.5582 72.7055C56.4833 68.4971 52.9612 63.6787 50.3507 58.4074Z" fill="#1A2632"/>
<path d="M36.3132 14.0558C34.6583 9.2716 31.948 4.93408 28.5632 1.19429C28.2115 0.805777 27.8499 0.406657 27.479 0C27.8572 0.583127 28.2234 1.16743 28.5751 1.7409C30.9506 5.60838 32.9331 9.75365 34.1933 14.1326C36.7251 22.9304 35.3208 31.67 33.5561 40.4608C31.53 50.5431 29.9881 60.6742 34.2836 70.4313C37.9045 78.6573 44.5886 84.5494 52.8783 87.264C45.4161 80.1874 41.6291 68.6212 40.3895 58.8857C39.7029 53.4903 39.7631 48.056 40.5292 42.7384C40.1847 33.0323 39.5536 23.4163 36.3132 14.0558Z" fill="#1A2632"/>
<path d="M23.7857 31.0127C20.796 38.8247 17.5099 46.7607 16.992 55.219C16.7089 59.8597 17.2377 64.638 18.9747 68.9706C19.4541 70.1684 20.0383 71.2763 20.6864 72.3329C25.6492 77.1829 29.6711 83.0726 35.5098 86.8404C40.6436 90.1528 46.393 90.3611 52.2099 89.8192C36.6637 85.1141 27.6837 69.1909 28.963 52.9571C29.7182 43.3872 33.1788 34.1779 33.227 24.5302C33.2644 16.8973 30.6868 10.2819 27.0645 4.09888C27.5559 5.64753 27.9378 7.23363 28.1716 8.85767C29.2909 16.6292 26.5527 23.7836 23.8269 30.905L23.7857 31.0127Z" fill="#1A2632"/>
<path d="M56.0386 129.289C64.838 130.129 74.8034 129.37 82.4126 124.416C90.9468 118.861 94.6377 107.626 87.7657 99.164C74.5252 82.8596 53.3019 98.0744 37.1451 90.9988C29.2601 87.5453 24.8045 79.731 18.6201 74.1296C14.2584 70.1806 9.12216 67.3331 3.62573 65.5863C5.2531 66.4335 6.83709 67.3769 8.35846 68.4459C13.873 72.3159 17.7034 77.402 21.6472 82.7962C26.5991 89.5685 32.9556 94.0229 41.2743 95.3656C48.3499 96.5099 56.2832 95.351 62.9203 98.5076C67.5036 100.688 71.1547 105.933 69.3142 111.159C67.4484 116.454 61.1823 119.282 56.1266 120.248C42.7741 122.799 30.6321 114.671 22.8746 104.328C17.6697 97.3878 14.2548 89.4931 10.5062 81.7164C8.51866 77.5907 6.04931 74.0653 2.57536 71.0924C1.74541 70.3814 0.88174 69.7205 0 69.0848C7.42493 77.9267 10.7784 90.2246 15.5714 100.785C23.1553 117.496 37.9703 127.564 56.0386 129.289Z" fill="#1A2632"/>
<path d="M9.6559 72.3208C6.7276 69.8325 3.4801 67.8603 0.0266113 66.3411C2.15026 67.7276 4.14863 69.3128 5.94223 71.0134C10.728 75.5519 13.0696 81.4889 15.8955 87.336C21.6955 99.3295 29.5553 112.066 42.8102 116.48C49.1127 118.579 56.5447 118.409 62.3099 114.832C65.6981 112.728 68.188 109.062 66.0199 105.1C63.8986 101.223 59.3983 100.008 55.3644 99.494C48.9765 98.6819 42.4803 98.9962 36.2502 97.1019C31.1007 95.5351 26.4246 92.5292 22.823 88.4938C18.1469 83.2579 15.0752 76.9238 9.6559 72.3208Z" fill="#1A2632"/>
<path d="M86.0549 125.306C89.9288 128.57 96.2925 126.111 98.9713 122.226C101.82 118.098 100.822 112.597 97.2562 109.388C95.924 113.107 93.805 116.603 91.2021 119.598C89.7938 121.826 88.0424 123.716 86.0549 125.306Z" fill="#1A2632"/>
</svg>
