<svg width="400" height="130" viewBox="0 0 400 130" fill="none" xmlns="http://www.w3.org/2000/svg">
<path d="M209.984 81.1827C209.984 91.0815 208.069 99.6946 204.238 107.022C200.408 114.221 194.981 119.814 187.958 123.799C181.063 127.655 172.892 129.584 163.443 129.584C153.994 129.584 145.758 127.655 138.736 123.799C131.713 119.814 126.222 114.221 122.264 107.022C118.434 99.8231 116.518 91.21 116.518 81.1827C116.518 71.2838 118.498 62.7351 122.456 55.5359C126.414 48.3367 131.905 42.8089 138.927 38.9523C145.95 34.9671 154.122 32.9744 163.443 32.9744C172.764 32.9744 180.872 34.9671 187.767 38.9523C194.79 42.8089 200.216 48.4011 204.047 55.7287C208.005 62.9279 209.984 71.4125 209.984 81.1827ZM163.443 51.8721C156.42 51.8721 150.866 54.4433 146.78 59.5854C142.822 64.7275 140.842 71.9267 140.842 81.1827C140.842 90.6958 142.822 98.0235 146.78 103.166C150.738 108.179 156.292 110.686 163.443 110.686C170.465 110.686 175.956 108.115 179.914 102.973C183.872 97.8307 185.852 90.5671 185.852 81.1827C185.852 72.0552 183.872 64.9203 179.914 59.7782C175.956 54.5074 170.465 51.8721 163.443 51.8721ZM259.08 88.5103L242.609 77.5188L286.086 33.9386C290.809 34.0671 294.578 35.2241 297.386 37.4096C300.194 39.4664 301.6 42.1661 301.6 45.5086C301.6 48.2082 300.642 50.6507 298.727 52.8362C296.938 55.0217 294.195 57.7214 290.491 60.9352L259.08 88.5103ZM243.183 80.9898L261.379 72.3124L306.005 114.543C305.622 118.785 304.346 122.128 302.174 124.57C300.003 127.013 297.003 128.234 293.172 128.234C290.235 128.234 287.553 127.527 285.128 126.113C282.703 124.57 280.213 122.256 277.659 119.171L243.183 80.9898ZM224.796 75.5905L248.355 76.7475V126.498C247.332 126.884 245.865 127.205 243.95 127.463C242.034 127.848 239.927 128.041 237.629 128.041C233.287 128.041 230.031 127.27 227.861 125.727C225.818 124.056 224.796 121.163 224.796 117.05V75.5905ZM248.355 88.896L224.796 87.739V1.54266C225.818 1.28547 227.286 0.96416 229.202 0.578494C231.117 0.192828 233.224 0 235.522 0C239.992 0 243.248 0.835692 245.29 2.50683C247.332 4.04949 248.355 6.87762 248.355 10.9915V88.896ZM316.302 91.9813V76.7475H339.86V91.5956C339.86 98.4092 341.584 103.294 345.031 106.251C348.606 109.208 353.523 110.686 359.779 110.686C363.866 110.686 367.313 110.3 370.121 109.529C372.93 108.758 375.037 107.922 376.442 107.022V76.7475H400V108.951C400 111.907 399.49 114.414 398.468 116.471C397.575 118.399 395.786 120.199 393.105 121.87C389.401 124.056 384.678 125.856 378.932 127.27C373.313 128.812 366.865 129.584 359.587 129.584C350.777 129.584 343.116 128.298 336.604 125.727C330.092 123.156 325.048 119.106 321.473 113.579C318.026 107.922 316.302 100.723 316.302 91.9813ZM400 86.0035H376.442V35.8669C377.464 35.6097 378.932 35.3528 380.847 35.0956C382.889 34.7099 384.996 34.5171 387.167 34.5171C391.637 34.5171 394.893 35.2884 396.935 36.8311C398.978 38.3738 400 41.2663 400 45.5086V86.0035ZM339.86 86.0035H316.302V35.8669C317.324 35.6097 318.792 35.3528 320.707 35.0956C322.622 34.7099 324.729 34.5171 327.027 34.5171C331.497 34.5171 334.753 35.2884 336.795 36.8311C338.838 38.3738 339.86 41.2663 339.86 45.5086V86.0035Z" fill="white"/>
<path d="M74.3573 70.8245C63.1273 62.5816 51.1346 49.3938 48.1015 34.862C47.8727 38.0856 47.8738 41.3165 48.4509 44.6729C49.4832 50.6915 51.7886 56.4 55.0206 61.5494C58.3295 66.8206 62.5743 71.2435 67.183 75.3557C71.5157 79.2209 75.5946 83.1882 76.5196 89.2082C81.2715 90.3561 85.7032 92.5901 89.1289 96.3127C92.5692 100.05 94.3194 104.685 94.2845 109.387C95.9804 105.286 96.6911 100.863 95.4024 95.6518C92.5968 84.3083 83.2133 77.3242 74.3573 70.8245Z" fill="white"/>
<path d="M50.3507 58.4074C46.7395 51.1128 44.1955 41.2484 45.8144 32.6818C43.0175 40.6691 42.0501 49.2758 43.0547 57.756C44.375 68.8999 49.3932 83.4621 59.9692 88.8601C61.7797 88.6252 63.5732 88.4169 65.3318 88.3111C68.1072 88.1443 70.9477 88.2416 73.7266 88.6652C72.0751 81.6227 65.326 77.6273 60.5582 72.7055C56.4833 68.4971 52.9612 63.6787 50.3507 58.4074Z" fill="white"/>
<path d="M36.3132 14.0558C34.6583 9.2716 31.948 4.93408 28.5632 1.19429C28.2115 0.805777 27.8499 0.406657 27.479 0C27.8572 0.583127 28.2234 1.16743 28.5751 1.7409C30.9506 5.60838 32.9331 9.75365 34.1933 14.1326C36.7251 22.9304 35.3208 31.67 33.5561 40.4608C31.53 50.5431 29.9881 60.6742 34.2836 70.4313C37.9045 78.6573 44.5886 84.5494 52.8783 87.264C45.4161 80.1874 41.6291 68.6212 40.3895 58.8857C39.7029 53.4903 39.7631 48.056 40.5292 42.7384C40.1847 33.0323 39.5536 23.4163 36.3132 14.0558Z" fill="white"/>
<path d="M23.7857 31.0127C20.796 38.8247 17.5099 46.7607 16.992 55.219C16.7089 59.8597 17.2377 64.638 18.9747 68.9706C19.4541 70.1684 20.0383 71.2763 20.6864 72.3329C25.6492 77.1829 29.6711 83.0726 35.5098 86.8404C40.6436 90.1528 46.393 90.3611 52.2099 89.8192C36.6637 85.1141 27.6837 69.1909 28.963 52.9571C29.7182 43.3872 33.1788 34.1779 33.227 24.5302C33.2644 16.8973 30.6868 10.2819 27.0645 4.09888C27.5559 5.64753 27.9378 7.23363 28.1716 8.85767C29.2909 16.6292 26.5527 23.7836 23.8269 30.905L23.7857 31.0127Z" fill="white"/>
<path d="M56.0386 129.289C64.838 130.129 74.8034 129.37 82.4126 124.416C90.9468 118.861 94.6377 107.626 87.7657 99.164C74.5252 82.8596 53.3019 98.0744 37.1451 90.9988C29.2601 87.5453 24.8045 79.731 18.6201 74.1296C14.2584 70.1806 9.12216 67.3331 3.62573 65.5863C5.2531 66.4335 6.83709 67.3769 8.35846 68.4459C13.873 72.3159 17.7034 77.402 21.6472 82.7962C26.5991 89.5685 32.9556 94.0229 41.2743 95.3656C48.3499 96.5099 56.2832 95.351 62.9203 98.5076C67.5036 100.688 71.1547 105.933 69.3142 111.159C67.4484 116.454 61.1823 119.282 56.1266 120.248C42.7741 122.799 30.6321 114.671 22.8746 104.328C17.6697 97.3878 14.2548 89.4931 10.5062 81.7164C8.51866 77.5907 6.04931 74.0653 2.57536 71.0924C1.74541 70.3814 0.88174 69.7205 0 69.0848C7.42493 77.9267 10.7784 90.2246 15.5714 100.785C23.1553 117.496 37.9703 127.564 56.0386 129.289Z" fill="white"/>
<path d="M9.6559 72.3208C6.7276 69.8325 3.4801 67.8603 0.0266113 66.3411C2.15026 67.7276 4.14863 69.3128 5.94223 71.0134C10.728 75.5519 13.0696 81.4889 15.8955 87.336C21.6955 99.3295 29.5553 112.066 42.8102 116.48C49.1127 118.579 56.5447 118.409 62.3099 114.832C65.6981 112.728 68.188 109.062 66.0199 105.1C63.8986 101.223 59.3983 100.008 55.3644 99.494C48.9765 98.6819 42.4803 98.9962 36.2502 97.1019C31.1007 95.5351 26.4246 92.5292 22.823 88.4938C18.1469 83.2579 15.0752 76.9238 9.6559 72.3208Z" fill="white"/>
<path d="M86.0549 125.306C89.9288 128.57 96.2925 126.111 98.9713 122.226C101.82 118.098 100.822 112.597 97.2562 109.388C95.924 113.107 93.805 116.603 91.2021 119.598C89.7938 121.826 88.0424 123.716 86.0549 125.306Z" fill="white"/>
</svg>
